<svg width="136" height="24" viewBox="0 0 136 24" fill="none" xmlns="http://www.w3.org/2000/svg">
<path d="M12 20.0993L17.8198 23.7824C18.8856 24.4574 20.1898 23.4595 19.9094 22.1976L18.3667 15.2716L23.5134 10.6054C24.453 9.75433 23.9482 8.14023 22.7141 8.03751L15.9407 7.43589L13.2902 0.891426C12.8134 -0.297142 11.1866 -0.297142 10.7098 0.891426L8.05935 7.42121L1.28591 8.02284C0.051828 8.12555 -0.453025 9.73966 0.486562 10.5907L5.63325 15.257L4.09065 22.1829C3.81017 23.4449 5.11437 24.4427 6.18017 23.7677L12 20.0993Z" fill="#FFC726"/>
<path d="M40 20.0993L45.8198 23.7824C46.8856 24.4574 48.1898 23.4595 47.9094 22.1976L46.3667 15.2716L51.5134 10.6054C52.453 9.75433 51.9482 8.14023 50.7141 8.03751L43.9407 7.43589L41.2902 0.891426C40.8134 -0.297142 39.1866 -0.297142 38.7098 0.891426L36.0593 7.42121L29.2859 8.02284C28.0518 8.12555 27.547 9.73966 28.4866 10.5907L33.6333 15.257L32.0906 22.1829C31.8102 23.4449 33.1144 24.4427 34.1802 23.7677L40 20.0993Z" fill="#FFC726"/>
<path d="M68 20.0993L73.8198 23.7824C74.8856 24.4574 76.1898 23.4595 75.9094 22.1976L74.3667 15.2716L79.5134 10.6054C80.453 9.75433 79.9482 8.14023 78.7141 8.03751L71.9407 7.43589L69.2902 0.891426C68.8134 -0.297142 67.1866 -0.297142 66.7098 0.891426L64.0593 7.42121L57.2859 8.02284C56.0518 8.12555 55.547 9.73966 56.4866 10.5907L61.6333 15.257L60.0906 22.1829C59.8102 23.4449 61.1144 24.4427 62.1802 23.7677L68 20.0993Z" fill="#FFC726"/>
<path d="M96 20.0993L101.82 23.7824C102.886 24.4574 104.19 23.4595 103.909 22.1976L102.367 15.2716L107.513 10.6054C108.453 9.75433 107.948 8.14023 106.714 8.03751L99.9407 7.43589L97.2902 0.891426C96.8134 -0.297142 95.1866 -0.297142 94.7098 0.891426L92.0593 7.42121L85.2859 8.02284C84.0518 8.12555 83.547 9.73966 84.4866 10.5907L89.6333 15.257L88.0906 22.1829C87.8102 23.4449 89.1144 24.4427 90.1802 23.7677L96 20.0993Z" fill="#FFC726"/>
<path d="M124 20.0993L129.82 23.7824C130.886 24.4574 132.19 23.4595 131.909 22.1976L130.367 15.2716L135.513 10.6054C136.453 9.75433 135.948 8.14023 134.714 8.03751L127.941 7.43589L125.29 0.891426C124.813 -0.297142 123.187 -0.297142 122.71 0.891426L120.059 7.42121L113.286 8.02284C112.052 8.12555 111.547 9.73966 112.487 10.5907L117.633 15.257L116.091 22.1829C115.81 23.4449 117.114 24.4427 118.18 23.7677L124 20.0993Z" fill="#FFC726"/>
</svg>
