<svg width="199" height="199" viewBox="0 0 199 199" fill="none" xmlns="http://www.w3.org/2000/svg">
<path d="M12.2206 120.24L8.93155 124.799L13.1381 123.676L13.6438 125.57L4.20272 128.091L3.69701 126.197L7.93063 125.067L2.77949 122.762L2.16902 120.476L7.88933 123.121L11.5812 117.846L12.2206 120.24Z" fill="white"/>
<path d="M1.70019 103.079L4.14922 103.01L4.05625 99.7211L5.60963 99.6772L5.7026 102.966L8.29156 102.893L8.18673 99.1842L9.78209 99.1391L9.94231 104.807L0.160213 105.083L0 99.4156L1.59536 99.3705L1.70019 103.079Z" fill="white"/>
<path d="M3.51494 80.4272L5.91391 80.9247L6.58188 77.7032L8.10351 78.0187L7.43555 81.2402L9.97161 81.766L10.7248 78.1333L12.2876 78.4573L11.1364 84.0092L1.55424 82.0224L2.70542 76.4705L4.26818 76.7945L3.51494 80.4272Z" fill="white"/>
<path d="M14.0497 54.6229C14.5232 54.8442 14.9138 55.1658 15.2214 55.5877C15.533 56.0012 15.703 56.5082 15.7314 57.1087C15.7638 57.7007 15.6101 58.3604 15.2703 59.0875L14.5768 60.5715L17.9759 62.16L17.1461 63.9356L8.29312 59.7985L9.8164 56.5388C10.1365 55.8539 10.5275 55.3258 10.9895 54.9545C11.4515 54.5832 11.945 54.3759 12.4699 54.3328C12.9988 54.2812 13.5254 54.3779 14.0497 54.6229ZM13.8015 58.4939C14.0307 58.0034 14.0907 57.5885 13.9814 57.249C13.8638 56.9055 13.602 56.639 13.1962 56.4493C12.3337 56.0463 11.6772 56.3267 11.2267 57.2906L10.5688 58.6985L13.1436 59.9017L13.8015 58.4939Z" fill="white"/>
<path d="M22.1548 37.0008L29.8151 43.0681L28.5982 44.6046L20.9379 38.5373L22.1548 37.0008Z" fill="white"/>
<path d="M47.7374 26.1286L46.199 27.343L38.5605 24.829L42.7155 30.0927L41.177 31.3071L35.1137 23.6258L36.6522 22.4114L44.2993 24.9364L40.1357 19.6617L41.6742 18.4473L47.7374 26.1286Z" fill="white"/>
<path d="M61.5612 10.7245C61.1849 10.4466 60.7737 10.2931 60.3277 10.2638C59.8818 10.2346 59.4218 10.3302 58.948 10.5507C58.4233 10.7948 58.013 11.1298 57.7171 11.5558C57.4211 11.9817 57.2613 12.4678 57.2376 13.0142C57.2138 13.5605 57.3359 14.1214 57.6036 14.6968C57.8792 15.2892 58.2336 15.7522 58.6669 16.0859C59.1085 16.4157 59.5918 16.6026 60.1167 16.6466C60.6416 16.6906 61.1791 16.5847 61.7291 16.3287C62.4061 16.0137 62.8777 15.5781 63.1439 15.0219C63.4061 14.4572 63.4553 13.8218 63.2915 13.1157L60.2451 14.5332L59.6132 13.175L64.4112 10.9425L65.1318 12.4911C65.3007 13.1639 65.3126 13.8532 65.1675 14.559C65.0224 15.2648 64.7157 15.9222 64.2476 16.5312C63.784 17.1278 63.1714 17.6032 62.4098 17.9576C61.5552 18.3553 60.6923 18.5252 59.8212 18.4672C58.9546 18.3969 58.163 18.1116 57.4464 17.6112C56.7382 17.1069 56.1813 16.4189 55.7758 15.5473C55.3702 14.6757 55.2026 13.8066 55.2729 12.9401C55.3478 12.0611 55.6393 11.2718 56.1476 10.5721C56.6604 9.85994 57.3399 9.307 58.1861 8.91326C59.1846 8.44864 60.1662 8.29046 61.1307 8.43871C62.0914 8.57849 62.9161 9.02345 63.6048 9.77358L61.5612 10.7245Z" fill="white"/>
<path d="M107.422 0.256714L103.929 6.52503L103.828 9.92551L101.868 9.86688L101.97 6.4664L98.8442 0L101.055 0.0661678L103.021 4.59299L105.239 0.191384L107.422 0.256714Z" fill="white"/>
<path d="M123.404 13.178C122.52 12.9405 121.765 12.5151 121.137 11.9018C120.51 11.2885 120.078 10.5587 119.841 9.71227C119.607 8.85687 119.615 7.96498 119.865 7.03661C120.112 6.11726 120.55 5.35069 121.179 4.73693C121.81 4.11414 122.551 3.6948 123.402 3.47888C124.252 3.26296 125.119 3.27374 126.002 3.5112C126.895 3.75109 127.65 4.17648 128.269 4.78736C128.896 5.40067 129.323 6.13381 129.548 6.98679C129.784 7.83318 129.779 8.71605 129.531 9.6354C129.282 10.5638 128.841 11.3394 128.21 11.9621C127.59 12.5783 126.855 12.9944 126.004 13.2103C125.154 13.4262 124.287 13.4154 123.404 13.178ZM123.858 11.488C124.426 11.6406 124.96 11.6489 125.46 11.5129C125.963 11.3678 126.401 11.0891 126.772 10.6768C127.144 10.2645 127.415 9.74294 127.585 9.11201C127.754 8.48108 127.78 7.89856 127.663 7.36444C127.548 6.82131 127.308 6.36541 126.943 5.99672C126.579 5.62804 126.112 5.36737 125.544 5.21472C124.977 5.06206 124.438 5.05255 123.928 5.18619C123.428 5.32225 122.992 5.59643 122.62 6.00871C122.251 6.41198 121.981 6.92907 121.812 7.56001C121.642 8.19094 121.615 8.77797 121.729 9.3211C121.844 9.86423 122.083 10.3246 122.445 10.7023C122.819 11.0734 123.29 11.3353 123.858 11.488Z" fill="white"/>
<path d="M145.034 11.0751L142.159 16.3962C141.844 16.9792 141.754 17.5088 141.89 17.985C142.029 18.4529 142.374 18.8355 142.924 19.1328C143.483 19.4345 143.996 19.5155 144.464 19.3758C144.936 19.2279 145.33 18.8624 145.645 18.2794L148.52 12.9583L150.257 13.8966L147.388 19.2054C146.994 19.9362 146.498 20.4697 145.903 20.8058C145.32 21.1381 144.694 21.2874 144.022 21.2535C143.359 21.2242 142.703 21.0343 142.055 20.6838C141.414 20.3377 140.9 19.8955 140.512 19.357C140.132 18.8229 139.925 18.2234 139.892 17.5583C139.864 16.8851 140.047 16.183 140.441 15.4522L143.31 10.1434L145.034 11.0751Z" fill="white"/>
<path d="M175.651 48.6674L173.421 45.4774L171.526 46.0163L170.347 44.3295L180.381 41.6033L181.688 43.4737L175.681 51.9603L174.494 50.262L175.651 48.6674ZM176.631 47.3331L179.172 43.8321L175.011 45.0152L176.631 47.3331Z" fill="white"/>
<path d="M184.65 65.7986L185.837 68.7921L184.392 69.3647L182.484 64.549L191.568 60.9487L192.29 62.7708L184.65 65.7986Z" fill="white"/>
<path d="M198.907 91.9681L188.843 90.6748L188.511 88.3889L195.132 85.5714L187.97 84.6761L187.625 82.4061L196.93 78.3913L197.232 80.4694L189.972 83.2669L197.767 84.1406L198.082 86.3018L190.885 89.2457L198.602 89.8761L198.907 91.9681Z" fill="white"/>
<path d="M190.521 109.508L190.863 105.631L189.065 104.826L189.246 102.776L198.685 107.137L198.484 109.41L188.427 112.05L188.609 109.986L190.521 109.508ZM192.129 109.116L196.326 108.067L192.378 106.299L192.129 109.116Z" fill="white"/>
<path d="M192.325 135.565L187.321 130.421L184.093 129.348L184.711 127.488L187.939 128.561L195.031 127.421L194.333 129.52L189.433 130.104L193.013 133.492L192.325 135.565Z" fill="white"/>
<path d="M175.327 147.227C175.685 146.648 176.108 146.185 176.596 145.839C177.079 145.501 177.59 145.313 178.13 145.273C178.67 145.234 179.197 145.367 179.71 145.673L178.606 147.46C178.25 147.273 177.906 147.225 177.575 147.317C177.239 147.416 176.954 147.657 176.718 148.038C176.478 148.427 176.38 148.789 176.425 149.124C176.479 149.464 176.656 149.728 176.958 149.914C177.204 150.066 177.453 150.116 177.705 150.063C177.957 150.01 178.198 149.896 178.427 149.719C178.66 149.556 178.955 149.31 179.311 148.982C179.804 148.54 180.231 148.195 180.592 147.947C180.957 147.712 181.371 147.567 181.832 147.512C182.297 147.47 182.792 147.611 183.316 147.935C183.808 148.239 184.161 148.627 184.374 149.099C184.587 149.57 184.651 150.088 184.567 150.65C184.491 151.217 184.276 151.787 183.923 152.358C183.393 153.216 182.753 153.781 182.004 154.052C181.257 154.337 180.494 154.277 179.713 153.871L180.846 152.037C181.142 152.198 181.452 152.22 181.777 152.102C182.105 151.998 182.384 151.759 182.615 151.386C182.816 151.06 182.895 150.746 182.85 150.445C182.802 150.151 182.618 149.906 182.301 149.71C182.078 149.573 181.848 149.529 181.608 149.579C181.372 149.641 181.14 149.75 180.913 149.906C180.688 150.074 180.393 150.32 180.029 150.643C179.536 151.085 179.105 151.428 178.736 151.671C178.366 151.914 177.946 152.061 177.476 152.111C177.007 152.161 176.514 152.026 175.998 151.707C175.553 151.432 175.211 151.062 174.973 150.596C174.734 150.131 174.637 149.604 174.681 149.017C174.734 148.435 174.949 147.839 175.327 147.227Z" fill="white"/>
<path d="M150.813 184.714L145.69 176.392L147.359 175.365L152.482 183.686L150.813 184.714Z" fill="white"/>
<path d="M123.055 186.181L124.916 185.566L131.234 190.541L129.129 184.173L130.99 183.558L134.061 192.85L132.2 193.465L125.878 188.477L127.986 194.857L126.125 195.472L123.055 186.181Z" fill="white"/>
<path d="M85.7268 188.031C86.4008 188.131 86.9933 188.336 87.504 188.647C88.0056 188.957 88.3814 189.352 88.6314 189.832C88.8814 190.312 88.9675 190.848 88.8896 191.441L86.8121 191.135C86.8429 190.734 86.7506 190.399 86.5353 190.132C86.3108 189.863 85.9769 189.696 85.5337 189.63C85.0812 189.564 84.7101 189.617 84.4203 189.792C84.1291 189.975 83.9576 190.242 83.9059 190.593C83.8638 190.88 83.9168 191.128 84.065 191.339C84.2133 191.549 84.4138 191.725 84.6666 191.866C84.9088 192.015 85.2512 192.188 85.6939 192.385C86.2946 192.662 86.7805 192.918 87.1517 193.152C87.5123 193.394 87.8092 193.716 88.0424 194.118C88.265 194.528 88.3314 195.038 88.2416 195.647C88.1573 196.22 87.9407 196.697 87.5919 197.08C87.2431 197.462 86.7938 197.726 86.244 197.872C85.6929 198.027 85.085 198.055 84.4202 197.957C83.4229 197.81 82.651 197.446 82.1045 196.866C81.5473 196.293 81.3004 195.568 81.3636 194.691L83.4966 195.005C83.4661 195.34 83.5691 195.633 83.8056 195.885C84.0315 196.145 84.3614 196.307 84.7954 196.371C85.174 196.426 85.4929 196.374 85.7524 196.215C86.0025 196.053 86.1548 195.788 86.2092 195.419C86.2473 195.16 86.1962 194.931 86.0558 194.731C85.9049 194.539 85.7129 194.369 85.4799 194.222C85.2363 194.082 84.8939 193.909 84.4526 193.702C83.852 193.425 83.3667 193.165 82.9969 192.922C82.627 192.679 82.3262 192.351 82.0944 191.94C81.8625 191.528 81.7908 191.022 81.8792 190.422C81.9554 189.905 82.1601 189.445 82.4931 189.041C82.8262 188.637 83.271 188.339 83.8275 188.148C84.3827 187.965 85.0158 187.927 85.7268 188.031Z" fill="white"/>
<path d="M58.1206 190.079L63.5469 185.384L64.8056 182.223L66.6265 182.948L65.3678 186.109L66.0936 193.254L64.0386 192.436L63.7399 187.51L60.1496 190.887L58.1206 190.079Z" fill="white"/>
<path d="M44.0516 170.156L45.6562 171.282L45.4386 179.32L49.2895 173.83L50.8941 174.956L45.2745 182.967L43.6698 181.842L43.8956 173.792L40.0366 179.293L38.432 178.168L44.0516 170.156Z" fill="white"/>
<path d="M31.6093 165.49C30.8907 166.129 30.1062 166.539 29.2559 166.72C28.3924 166.9 27.5557 166.851 26.7458 166.572C25.9227 166.292 25.2012 165.803 24.5813 165.105C23.856 164.289 23.4299 163.387 23.3031 162.401C23.1762 161.416 23.3741 160.472 23.8967 159.571L25.3938 161.256C25.1937 161.733 25.1428 162.203 25.2411 162.665C25.3333 163.12 25.556 163.546 25.9093 163.944C26.2875 164.369 26.7265 164.66 27.2264 164.815C27.7131 164.969 28.2215 164.98 28.7517 164.846C29.2757 164.705 29.7819 164.417 30.2704 163.983C30.7518 163.556 31.0968 163.087 31.3055 162.577C31.5009 162.066 31.5541 161.557 31.4651 161.049C31.3629 160.541 31.1228 160.074 30.7446 159.648C30.3913 159.25 29.9941 158.979 29.5531 158.834C29.099 158.688 28.6231 158.686 28.1254 158.829L26.6284 157.144C27.5919 156.725 28.5558 156.636 29.5199 156.878C30.4709 157.119 31.3121 157.652 32.0436 158.475C32.6635 159.173 33.0675 159.944 33.2557 160.788C33.4306 161.631 33.3812 162.468 33.1074 163.298C32.8274 164.121 32.328 164.852 31.6093 165.49Z" fill="white"/>
</svg>
