<svg width="128" height="128" viewBox="0 0 128 128" fill="none" xmlns="http://www.w3.org/2000/svg">
<path d="M61.5187 34.9359L67.9606 16.2932C68.1576 15.6519 67.6873 15 67.0276 15H24.3308C24.3308 15 0 15 0 39.158C0 65.6729 24.3308 65.6729 24.3308 65.6729H39.0297C42.4861 65.6729 45.6856 67.5321 47.4447 70.5628L69.9642 111.022C70.7405 112.36 74.9178 112.317 75.6356 110.946L127.884 18.9904C128.231 18.3271 127.759 17.526 127.021 17.526H100.451C100.081 17.526 99.7424 17.7389 99.5767 18.076L73.0257 73.407C72.6382 74.1951 71.4922 74.1334 71.1792 73.3117C68.8308 67.1457 62.6169 50.7413 53.8753 47.4071C51.3763 46.4539 43.9923 46.186 37.7183 46.1415C31.1674 46.0951 21.6094 46.6728 21.6094 39.9998C21.6094 39.5482 21.6911 39.1104 21.8294 38.6929C22.9097 35.4314 26.1276 35.9322 29.5064 35.8801L60.6005 35.6341C61.0224 35.6276 61.3927 35.3461 61.5187 34.9359Z" fill="#00B5FF"/>
<path d="M41.167 81.6658H4.95579C4.35234 81.6658 3.89237 82.2187 4.00226 82.8231C5.33511 90.1538 7.62659 94.4253 12.8981 97.2481C19.013 100.523 26.2235 100.522 33.1417 100.521L53.2381 100.521C54.5698 100.521 55.5125 99.1908 55.0725 97.9104C52.4747 90.3512 50.2153 86.2413 45.9685 83.103C44.585 82.0807 42.8762 81.6658 41.167 81.6658Z" fill="#00B5FF"/>
</svg>
