<svg width="128" height="97" viewBox="0 0 128 97" fill="none" xmlns="http://www.w3.org/2000/svg">
<path d="M61.5187 19.9359L67.9606 1.2932C68.1576 0.651901 67.6873 0 67.0276 0H24.3308C24.3308 0 0 0 0 24.158C0 50.6729 24.3308 50.6729 24.3308 50.6729H39.0297C42.4861 50.6729 45.6856 52.5321 47.4447 55.5628L69.9642 96.022C70.7405 97.3595 74.9178 97.3166 75.6356 95.9456L127.884 3.99043C128.231 3.32713 127.759 2.52604 127.021 2.52604H100.451C100.081 2.52604 99.7424 2.7389 99.5767 3.07597L73.0257 58.407C72.6382 59.1951 71.4922 59.1334 71.1792 58.3117C68.8308 52.1457 62.6169 35.7413 53.8753 32.4071C51.3763 31.4539 43.9923 31.186 37.7183 31.1415C31.1674 31.0951 21.6094 31.6728 21.6094 24.9998C21.6094 24.5482 21.6911 24.1104 21.8294 23.6929C22.9097 20.4314 26.1276 20.9322 29.5064 20.8801L60.6005 20.6341C61.0224 20.6276 61.3927 20.3461 61.5187 19.9359Z" fill="#0072EE"/>
<path d="M41.167 66.6658H4.95579C4.35234 66.6658 3.89237 67.2187 4.00226 67.8231C5.33511 75.1538 7.62659 79.4253 12.8981 82.2481C19.013 85.5226 26.2235 85.5217 33.1417 85.5208L53.2381 85.5208C54.5698 85.5208 55.5125 84.1908 55.0725 82.9104C52.4747 75.3512 50.2153 71.2413 45.9685 68.103C44.585 67.0807 42.8762 66.6658 41.167 66.6658Z" fill="#0072EE"/>
</svg>
